<?xml version="1.0" standalone="no"?>
<!DOCTYPE svg PUBLIC "-//W3C//DTD SVG 20010904//EN"
 "http://www.w3.org/TR/2001/REC-SVG-20010904/DTD/svg10.dtd">
<svg version="1.0" xmlns="http://www.w3.org/2000/svg"
 width="612.000000pt" height="366.000000pt" viewBox="0 0 612.000000 366.000000"
 preserveAspectRatio="xMidYMid meet">

<g transform="translate(0.000000,366.000000) scale(0.100000,-0.100000)"
fill="#000000" stroke="none">
<path d="M5536 3650 c-219 -35 -468 -162 -561 -287 -40 -54 -128 -231 -171
-342 l-28 -74 -19 47 c-12 28 -26 46 -36 46 -12 0 -13 2 -3 8 10 7 9 16 -3 46
-14 34 -19 37 -43 32 -22 -5 -24 -4 -9 4 23 15 22 24 -14 76 -19 28 -35 42
-42 37 -8 -5 -8 -2 0 9 11 12 8 22 -15 54 -47 65 -59 71 -85 45 -29 -27 -41
-27 -27 -1 14 27 8 35 -53 70 -47 27 -52 28 -64 12 -13 -15 -13 -15 -8 5 6 20
-6 27 -62 36 -5 0 -11 -12 -14 -29 l-7 -29 -1 27 c-2 47 -66 63 -138 33 -65
-27 -66 -31 -26 -91 20 -30 38 -54 40 -54 2 0 14 5 26 11 22 12 22 12 3 -9
-18 -21 -18 -22 5 -42 37 -30 58 -34 82 -13 22 18 22 18 5 -3 -22 -26 -22 -33
2 -62 16 -19 23 -21 40 -12 19 10 20 10 9 -9 -11 -16 -9 -25 17 -58 16 -21 28
-43 26 -50 -5 -22 50 -94 67 -89 62 17 66 17 34 -1 l-33 -18 21 -34 c18 -30
24 -33 52 -27 28 6 29 5 13 -7 -15 -11 -16 -18 -8 -34 9 -17 -1 -14 -61 18
-119 62 -279 111 -377 116 -74 4 -94 2 -160 -22 -119 -43 -422 -201 -459 -239
l-33 -34 72 -4 c72 -3 72 -3 85 27 l13 30 1 -27 c1 -28 1 -28 75 -28 l74 0
-10 36 c-13 50 -4 53 11 3 12 -39 14 -41 43 -35 17 3 46 6 64 6 34 0 34 0 35
48 l1 47 10 -42 c8 -38 12 -43 37 -43 16 0 43 3 60 6 30 6 31 8 33 68 0 34 3
46 5 26 9 -91 12 -98 49 -110 19 -7 37 -10 38 -8 2 1 11 17 20 33 10 17 14 21
11 10 -18 -52 -18 -52 20 -59 42 -8 45 -6 62 37 l13 32 -3 -42 c-3 -44 4 -52
46 -54 12 -1 -13 -10 -57 -20 -157 -38 -191 -62 -394 -268 -170 -173 -242
-253 -242 -271 0 -4 27 -1 60 7 54 14 60 18 61 42 1 17 3 20 6 9 5 -21 27 -22
89 -7 49 13 50 15 28 49 l-16 25 22 -24 c19 -22 23 -23 58 -12 61 20 76 35 62
63 l-11 23 19 -24 19 -24 46 27 c49 29 50 31 16 99 -9 20 -8 20 11 -2 11 -13
25 -31 30 -40 7 -14 13 -13 54 6 35 17 44 27 40 40 -5 14 -4 15 4 4 8 -11 15
-10 41 8 30 22 30 23 15 49 l-16 27 21 -24 21 -23 46 27 c44 26 46 29 40 63
-5 34 -5 35 5 10 6 -16 14 -28 19 -28 18 0 80 82 97 129 l18 51 48 0 c26 0 68
-5 92 -11 35 -9 45 -16 49 -38 12 -54 35 -280 40 -396 4 -66 9 -154 12 -196
l5 -76 -161 -106 c-146 -98 -412 -311 -485 -391 -16 -18 -69 -54 -116 -79
l-86 -46 -12 25 c-6 14 -8 42 -5 64 4 26 2 45 -6 55 -20 24 -33 18 -27 -14 4
-21 1 -33 -12 -46 -18 -15 -20 -15 -35 7 -9 12 -16 30 -16 40 0 26 -21 66 -38
73 -25 9 -37 -11 -18 -30 13 -13 15 -28 10 -73 -4 -31 -11 -62 -16 -68 -5 -7
-71 -14 -173 -19 -131 -6 -170 -11 -188 -24 -12 -9 -33 -22 -47 -28 -14 -6
-78 -60 -143 -121 -128 -119 -135 -122 -261 -122 -48 0 -56 4 -116 55 -36 30
-89 65 -118 77 -39 16 -52 26 -48 38 40 118 58 195 59 255 l2 70 -85 0 c-47 0
-115 -4 -152 -8 -63 -8 -66 -7 -61 11 6 24 -34 82 -56 82 -12 0 -12 -3 -3 -12
7 -7 12 -18 12 -26 0 -12 -3 -12 -15 -2 -8 6 -20 10 -27 7 -7 -2 -24 4 -37 15
-25 19 -43 16 -23 -4 19 -19 14 -38 -12 -38 -28 0 -72 -33 -96 -72 l-17 -28
-75 79 c-70 72 -88 84 -215 146 -76 37 -201 97 -278 132 -76 35 -140 65 -142
67 -14 14 40 634 58 667 8 16 23 20 131 35 l47 6 29 -63 c29 -65 76 -129 93
-129 5 0 14 10 19 23 9 19 9 18 5 -8 -5 -27 -1 -33 41 -58 l47 -28 24 28 24
28 -17 -29 c-18 -28 -18 -29 11 -53 27 -24 29 -24 42 -7 13 17 13 17 11 -6 -2
-20 4 -29 36 -44 44 -21 40 -23 89 45 17 23 17 23 1 -16 -9 -22 -18 -45 -21
-52 -2 -6 17 -24 42 -39 39 -22 49 -25 55 -13 5 8 16 23 25 34 15 19 15 18 0
-12 -8 -18 -15 -35 -15 -38 0 -3 24 -17 53 -30 l52 -23 23 27 c22 24 23 25 8
1 -22 -34 -21 -38 22 -49 89 -24 90 -24 95 -4 3 13 5 10 6 -8 1 -23 6 -27 44
-33 23 -3 52 -9 65 -12 l23 -7 -21 34 c-11 19 -109 125 -218 236 -220 225
-256 250 -406 282 -76 17 -79 18 -47 26 l33 7 -5 52 -6 51 15 -42 c14 -40 19
-43 51 -43 27 0 36 5 40 20 5 18 7 19 17 5 10 -14 15 -14 49 0 29 12 37 21 38
43 0 15 4 36 9 47 7 15 9 10 9 -23 1 -47 5 -50 71 -54 l45 -3 12 45 11 45 1
-47 c1 -45 2 -47 34 -53 18 -4 48 -5 67 -3 28 2 35 9 46 38 15 41 18 29 5 -18
-9 -31 -9 -32 23 -32 18 0 54 3 80 6 38 6 46 11 47 28 1 18 2 18 8 -4 6 -24
11 -25 86 -28 l80 -3 -40 40 c-48 49 -377 219 -486 252 -57 17 -87 21 -148 16
-90 -6 -264 -61 -377 -118 -62 -32 -72 -35 -63 -18 6 12 9 22 7 23 -2 2 -12 8
-23 15 -18 11 -18 11 5 5 14 -4 30 -9 36 -11 11 -4 61 64 53 71 -2 2 -17 11
-34 20 -16 10 -21 14 -10 11 63 -20 69 -18 94 28 13 24 21 49 17 55 -3 6 -3
12 2 14 4 1 21 20 37 42 28 37 28 39 10 52 -10 8 -14 14 -9 14 6 0 16 -6 23
-12 10 -11 17 -7 37 16 22 25 23 30 11 45 -27 32 -30 46 -4 22 l26 -24 43 28
42 28 -25 20 c-20 17 -20 19 -4 13 11 -4 24 -8 29 -9 11 -2 76 92 76 109 0 19
-70 44 -125 44 -52 0 -56 -2 -69 -32 l-14 -33 -1 28 c-1 17 -6 27 -17 27 -26
0 -54 -20 -54 -38 0 -13 -2 -14 -9 -3 -11 17 -38 8 -90 -30 -35 -25 -40 -32
-31 -49 16 -30 12 -35 -12 -13 -13 11 -28 23 -34 26 -13 7 -101 -99 -91 -109
3 -4 -2 -15 -12 -26 -10 -10 -27 -34 -37 -53 -18 -34 -18 -35 1 -50 19 -14 19
-15 -7 -6 -25 9 -27 7 -43 -31 -15 -38 -15 -41 2 -54 17 -12 16 -13 -3 -8 -19
5 -25 -2 -41 -46 l-20 -52 -22 64 c-47 131 -160 345 -209 396 -86 88 -242 179
-377 221 -110 35 -252 53 -315 41 -29 -5 -55 -10 -58 -10 -3 0 25 -21 62 -46
l68 -45 26 23 25 23 -13 -24 c-12 -22 -10 -27 16 -49 16 -13 41 -35 56 -48
l28 -24 20 38 c12 20 19 29 16 19 -17 -54 -15 -63 20 -111 l36 -49 50 54 c49
54 49 54 23 12 -14 -24 -25 -48 -25 -55 1 -7 16 -30 34 -51 l33 -39 47 41 c59
51 66 52 27 4 -37 -44 -37 -47 -10 -84 16 -24 24 -27 39 -19 29 16 34 12 10
-8 -21 -17 -22 -21 -11 -55 7 -20 17 -37 22 -37 6 0 30 14 54 30 57 39 70 39
17 0 -23 -17 -42 -35 -42 -41 0 -6 16 -34 37 -61 38 -52 43 -54 108 -33 11 3
3 -3 -19 -15 l-38 -22 23 -25 c22 -24 19 -23 -46 10 -109 55 -191 86 -311 117
-154 40 -269 53 -404 47 -158 -7 -239 -33 -303 -97 -57 -57 -61 -75 -12 -54
19 7 57 14 85 14 45 0 52 3 60 25 12 31 19 32 13 2 -4 -22 1 -26 59 -43 34
-10 68 -18 73 -19 6 0 13 18 16 40 6 38 7 37 6 -12 0 -29 1 -54 4 -57 2 -2 31
-6 65 -10 l61 -7 12 42 c15 51 23 47 11 -6 -10 -45 -8 -48 39 -64 59 -19 69
-15 101 47 17 31 29 49 25 38 -33 -110 -32 -118 29 -150 l35 -19 20 24 c19 23
20 23 15 3 -6 -25 -2 -29 44 -39 31 -6 33 -4 52 37 11 24 18 35 16 26 -3 -9
-8 -32 -11 -51 -6 -33 -5 -35 24 -42 43 -9 39 -21 -10 -29 -89 -14 -223 -73
-309 -135 -53 -38 -150 -133 -165 -162 l-14 -26 51 12 c29 6 54 17 56 23 2 7
8 10 12 7 5 -3 29 0 54 7 39 10 45 15 40 33 -6 19 -5 19 8 2 11 -15 18 -16 48
-6 19 6 41 19 47 27 11 13 13 13 13 1 0 -8 5 -21 10 -29 8 -12 14 -10 40 15
23 22 30 38 31 69 l1 41 10 -37 c8 -32 14 -38 36 -38 31 0 47 9 55 30 4 12 6
11 6 -2 1 -10 7 -18 14 -18 6 0 23 -3 36 -7 23 -6 24 -4 18 33 l-6 39 12 -32
c17 -44 20 -46 66 -38 39 6 41 9 43 43 l1 37 4 -32 c2 -18 10 -33 17 -33 21 0
64 53 92 114 l27 58 48 -5 c75 -9 109 -31 109 -70 0 -35 -89 -613 -98 -637 -3
-8 -6 -31 -7 -50 -1 -19 -9 -107 -18 -195 -9 -88 -21 -257 -27 -375 -17 -355
-30 -539 -46 -663 -17 -136 -20 -147 -43 -147 -10 0 -50 -11 -89 -24 -91 -31
-189 -51 -382 -76 -85 -11 -163 -23 -173 -26 -28 -9 -14 -27 34 -46 72 -26
210 -38 569 -48 385 -10 490 -24 490 -64 0 -19 -32 -26 -135 -27 -136 -1 -253
-13 -266 -26 -28 -28 93 -53 346 -73 191 -15 504 -30 634 -30 103 0 112 -1
100 -16 -11 -14 -11 -18 5 -29 65 -48 670 -25 2106 80 184 14 357 25 384 25
27 0 47 3 43 6 -3 3 -171 14 -374 24 -596 31 -661 40 -473 70 167 26 350 40
645 50 491 16 746 30 878 45 131 16 274 42 295 54 24 13 -147 62 -268 77 -209
26 -251 34 -290 54 -55 28 -104 74 -141 130 l-32 49 -52 -30 c-28 -16 -54 -29
-57 -29 -18 0 -44 255 -63 615 -27 531 -39 642 -119 1145 -34 211 -41 278 -33
289 18 22 72 41 114 41 37 0 39 -2 72 -65 18 -36 45 -75 60 -86 l26 -21 6 29
c5 22 7 24 8 6 1 -26 28 -43 70 -43 27 0 31 5 45 48 14 41 13 15 0 -30 -10
-33 56 -21 69 12 4 10 6 8 6 -7 1 -20 6 -23 40 -23 34 0 39 3 49 33 l10 32 1
-33 c1 -37 35 -92 56 -92 8 0 17 10 20 21 4 12 10 17 14 12 3 -6 23 -16 44
-23 34 -11 40 -10 53 7 14 17 14 17 5 -4 -10 -20 -7 -22 41 -32 40 -9 53 -9
60 1 5 9 8 6 8 -9 0 -18 6 -23 24 -23 14 0 36 -4 50 -10 14 -5 26 -6 26 -1 0
22 -77 104 -143 154 -97 73 -195 122 -303 150 -85 23 -86 24 -53 33 36 11 41
25 26 89 -5 22 -1 17 14 -15 11 -24 21 -46 23 -47 1 -1 19 2 39 8 39 11 43 18
26 52 -10 22 -10 22 6 2 9 -11 20 -26 24 -34 8 -14 26 -6 94 40 5 4 4 25 -3
50 -6 24 -13 53 -16 64 -2 11 9 -6 26 -38 30 -56 32 -58 63 -51 76 16 80 20
73 72 l-5 47 15 -43 c14 -37 20 -43 38 -38 11 3 40 6 64 6 l42 0 1 43 c2 31 3
35 6 14 3 -22 8 -27 21 -22 9 4 41 14 70 23 40 12 52 21 53 37 0 19 1 19 11
-2 9 -20 19 -23 65 -23 30 0 63 -5 74 -11 45 -23 42 1 -6 49 -41 41 -63 54
-125 73 -107 34 -338 34 -488 1 -122 -27 -274 -79 -374 -127 -40 -19 -74 -32
-77 -30 -2 3 4 7 13 11 24 9 20 19 -16 44 -18 12 -24 19 -13 15 51 -19 62 -17
90 16 15 19 32 44 38 58 10 21 7 27 -28 58 -43 37 -31 35 22 -3 38 -29 49 -30
63 -5 16 31 12 57 -12 75 -23 15 -23 16 5 6 24 -9 31 -7 48 12 26 32 24 45
-18 97 l-38 46 41 -32 c23 -18 47 -39 54 -48 19 -23 33 -18 64 28 l29 42 -28
50 -28 50 47 -52 c26 -29 52 -50 59 -47 7 2 25 25 39 49 23 37 26 50 17 71
-14 38 -4 41 11 4 7 -16 15 -30 17 -30 3 0 28 19 57 42 28 23 52 43 54 44 2 1
-2 13 -9 26 l-12 23 24 -21 24 -22 63 43 c34 24 58 46 53 50 -19 11 -136 14
-195 5z m-576 -734 c0 -2 -19 -16 -42 -31 -68 -45 -127 -97 -159 -139 -16 -22
-29 -37 -29 -34 0 20 53 164 63 170 7 4 30 8 52 8 31 1 80 13 113 29 1 0 2 -1
2 -3z m-200 -10 c0 -2 -7 -7 -16 -10 -8 -3 -12 -2 -9 4 6 10 25 14 25 6z
m-3464 -91 l61 -7 19 -61 c10 -34 21 -73 26 -86 5 -18 -5 -10 -38 27 -25 29
-76 73 -112 99 -88 61 -94 67 -52 50 19 -8 62 -18 96 -22z m104 15 c13 -8 13
-10 -2 -10 -9 0 -20 5 -23 10 -8 13 5 13 25 0z m3710 -72 c0 -17 -10 -6 -25
25 l-16 32 20 -25 c11 -14 21 -28 21 -32z m-220 7 l25 -14 -35 -1 c-19 0 -46
-3 -60 -7 -25 -6 -25 -6 -6 15 22 25 41 27 76 7z m-3320 -15 c8 -5 11 -10 5
-10 -5 0 -17 5 -25 10 -8 5 -10 10 -5 10 6 0 17 -5 25 -10z m3126 -25 c11 -27
-2 -37 -14 -11 -7 16 -8 26 -1 26 5 0 12 -7 15 -15z m-300 -32 c-8 -15 -15
-25 -16 -21 0 12 23 58 27 54 3 -2 -2 -17 -11 -33z m284 -27 c0 -4 -7 -6 -15
-2 -8 3 -38 8 -66 12 l-52 7 44 23 44 23 22 -27 c13 -15 23 -31 23 -36z
m-3636 29 c-4 -8 -11 -15 -16 -15 -6 0 -5 6 2 15 7 8 14 15 16 15 2 0 1 -7 -2
-15z m276 -5 l25 -20 -26 0 c-15 0 -41 3 -59 6 l-32 7 28 13 c38 16 35 17 64
-6z m130 -60 c-16 -31 -23 -19 -9 16 6 16 13 24 16 17 2 -7 -1 -22 -7 -33z
m309 -25 c0 -5 -6 1 -14 15 -8 14 -14 30 -14 35 0 6 6 -1 14 -15 8 -14 14 -29
14 -35z m-214 28 c19 -9 35 -20 35 -23 0 -7 -111 -22 -117 -16 -4 3 36 56 42
56 3 0 20 -8 40 -17z m3195 -850 c0 -293 -34 -791 -70 -1026 -11 -71 -20 -131
-20 -133 0 -1 -35 0 -77 3 -74 5 -86 3 -228 -45 -214 -73 -298 -86 -545 -87
-113 0 -249 4 -302 8 -95 9 -98 8 -98 -12 0 -22 -8 -25 -94 -36 -65 -9 -93
-23 -100 -50 -8 -30 -62 -51 -171 -66 -97 -12 -545 -7 -605 8 -44 11 -50 40
-19 84 34 48 17 55 -99 40 -53 -7 -127 -15 -165 -18 l-67 -6 5 59 c11 118 13
169 6 144 -4 -16 -9 -21 -14 -13 -4 7 0 27 9 45 22 43 19 41 44 28 12 -6 24
-9 27 -7 3 3 -8 12 -24 20 -28 15 -28 15 -58 -34 -17 -28 -37 -49 -47 -49 -10
0 -18 4 -18 9 0 5 -11 11 -25 13 -14 3 -25 1 -25 -3 0 -5 10 -9 23 -10 l22 0
-24 -12 c-22 -11 -23 -14 -16 -94 l7 -83 -34 0 c-38 0 -440 49 -445 54 -7 7
-43 279 -58 435 -26 282 -47 901 -31 901 2 0 62 -24 134 -54 112 -47 147 -67
251 -147 l120 -93 17 -70 c62 -263 217 -489 437 -638 58 -40 272 -157 424
-232 45 -23 86 -50 91 -62 6 -12 24 -24 42 -28 20 -4 34 -13 37 -26 6 -23 14
-25 31 -8 17 17 15 53 -3 68 -8 7 -15 18 -15 25 0 7 -13 15 -29 18 -16 3 -42
17 -57 31 l-29 25 51 1 c75 0 215 26 329 61 130 40 358 150 485 234 123 82
321 270 431 409 265 334 281 351 433 452 77 52 144 94 148 94 5 0 8 -57 8
-127z m-2817 -186 c-29 -9 -38 -5 -117 53 -48 35 -89 67 -92 72 -3 5 50 -19
118 -53 121 -62 123 -63 91 -72z m2387 -22 c-93 -115 -93 -115 -137 -115 -23
0 -43 3 -42 8 1 9 263 230 268 226 2 -2 -38 -55 -89 -119z m-1768 -154 l27 -6
-20 -32 c-23 -36 -36 -41 -45 -19 -4 12 -12 13 -31 5 -32 -12 -42 -4 -13 11
15 8 19 17 15 31 -7 21 11 23 67 10z m-54 -156 c-10 -22 -13 -24 -26 -11 -17
17 -8 36 18 36 17 0 18 -3 8 -25z m1267 -5 c-71 -34 -84 -37 -61 -11 10 11 34
24 54 29 66 18 68 11 7 -18z m-280 -40 c-6 -10 -78 -50 -90 -50 -11 0 -4 24
12 42 17 19 89 27 78 8z"/>
<path d="M1988 673 c6 -2 18 -2 25 0 6 3 1 5 -13 5 -14 0 -19 -2 -12 -5z"/>
<path d="M2717 3265 c-32 -20 -75 -49 -95 -65 l-37 -29 -80 23 c-134 39 -160
41 -87 7 34 -17 88 -50 120 -75 32 -26 64 -46 70 -46 6 0 26 28 43 61 17 34
52 83 79 110 27 27 48 49 47 49 -1 0 -28 -16 -60 -35z"/>
<path d="M3006 3020 c18 -19 46 -63 63 -97 17 -35 34 -63 37 -63 3 0 20 12 38
27 17 14 49 34 71 44 l40 19 -35 0 c-19 0 -49 -4 -67 -9 -28 -8 -36 -5 -85 38
-75 66 -98 81 -62 41z"/>
</g>
</svg>
