<?xml version="1.0" standalone="no"?>
<!DOCTYPE svg PUBLIC "-//W3C//DTD SVG 20010904//EN"
 "http://www.w3.org/TR/2001/REC-SVG-20010904/DTD/svg10.dtd">
<svg version="1.0" xmlns="http://www.w3.org/2000/svg"
 width="600.000000pt" height="214.000000pt" viewBox="0 0 600.000000 214.000000"
 preserveAspectRatio="xMidYMid meet">

<g transform="translate(0.000000,214.000000) scale(0.100000,-0.100000)"
fill="#000000" stroke="none">
<path d="M1280 1936 c-25 -7 -58 -19 -73 -27 -26 -14 -34 -14 -85 4 -115 38
-254 5 -340 -81 -35 -35 -48 -41 -99 -47 -32 -4 -78 -17 -103 -28 -66 -31
-144 -113 -167 -176 -14 -42 -26 -57 -60 -77 -51 -30 -105 -94 -135 -160 -28
-64 -30 -167 -4 -244 27 -77 120 -170 196 -195 78 -27 180 -24 248 5 l52 22
53 -23 c73 -33 199 -33 275 0 l53 24 27 -26 c15 -13 55 -39 89 -56 108 -54
174 -143 193 -258 6 -32 10 -136 10 -230 l0 -173 54 0 c40 0 55 4 60 16 3 9 6
114 6 234 0 304 8 322 189 454 22 16 50 49 63 73 20 38 21 45 8 53 -21 13 -95
12 -142 -2 -33 -10 -41 -9 -56 5 -40 41 40 81 151 75 l69 -4 -6 39 c-19 116
-133 216 -247 217 -25 0 -68 7 -95 15 -27 8 -55 15 -62 15 -7 0 -24 -24 -37
-52 -43 -92 -32 -188 32 -280 29 -43 25 -68 -11 -68 -32 0 -82 67 -104 142
-14 48 -21 57 -45 62 -30 6 -99 -6 -142 -26 -21 -9 -29 -9 -42 4 -9 9 -13 24
-9 33 10 27 92 57 161 58 l62 2 12 45 c7 25 22 64 36 85 l23 40 -31 35 c-18
19 -39 46 -48 59 l-16 25 -49 -24 c-36 -18 -71 -25 -132 -28 -79 -4 -82 -5
-88 -31 -12 -47 -53 -120 -89 -156 -55 -55 -124 -84 -223 -96 -88 -11 -147
-32 -192 -69 -28 -22 -54 -19 -64 7 -9 23 64 88 121 107 26 8 78 18 116 22 37
4 67 10 67 14 0 13 -51 54 -98 80 -49 26 -61 54 -31 73 24 15 122 -37 168 -90
l38 -42 41 40 c42 42 68 87 78 136 5 25 1 31 -35 51 -52 30 -73 59 -60 84 14
26 32 23 94 -18 44 -29 66 -37 117 -41 72 -6 133 8 172 38 21 16 26 29 26 64
0 36 4 45 21 50 29 10 37 -2 50 -70 17 -92 74 -167 151 -199 62 -26 73 -22 87
33 24 93 93 170 130 146 18 -11 12 -42 -14 -73 -26 -31 -55 -91 -55 -115 0 -8
19 -20 43 -27 73 -21 113 -47 164 -106 l50 -57 47 16 c26 9 63 30 83 47 38 34
76 37 81 6 6 -28 -53 -82 -123 -112 l-62 -27 4 -66 c4 -59 -8 -128 -31 -183
-6 -12 4 -24 38 -47 51 -36 111 -115 102 -137 -13 -35 -37 -26 -95 34 -78 82
-93 84 -172 30 -50 -34 -70 -55 -92 -100 -29 -55 -29 -61 -35 -251 -2 -106 -2
-210 2 -230 l7 -37 58 0 59 0 12 53 c31 131 112 245 228 318 116 72 158 122
188 225 9 33 29 77 43 99 39 58 51 90 57 154 7 61 -13 152 -43 197 -10 16 -15
53 -17 116 -1 74 -7 103 -25 140 -30 62 -87 120 -156 159 -31 17 -62 43 -70
58 -20 40 -100 110 -153 134 -35 16 -67 22 -127 22 -73 1 -85 4 -134 34 -32
19 -77 36 -110 42 -69 11 -75 11 -131 -5z"/>
<path d="M4777 1578 c-28 -22 -32 -73 -8 -97 26 -26 92 -29 115 -5 24 24 20
80 -6 98 -27 19 -78 21 -101 4z"/>
<path d="M4960 1325 c0 -239 1 -256 19 -274 21 -21 74 -35 112 -29 21 3 24 9
27 57 2 30 -2 59 -7 64 -7 7 -11 78 -11 193 0 100 -3 196 -6 213 -6 31 -7 31
-70 31 l-64 0 0 -255z"/>
<path d="M2496 1524 c-11 -84 -12 -83 47 -86 l52 -3 3 -202 2 -203 70 0 70 0
2 203 3 202 47 3 c54 3 62 16 56 88 l-3 39 -171 3 -171 2 -7 -46z"/>
<path d="M5136 1539 c-3 -18 -6 -46 -6 -65 0 -33 0 -33 53 -36 l52 -3 3 -202
2 -203 70 0 70 0 0 205 0 205 105 0 105 0 0 -205 0 -205 75 0 75 0 0 205 0
205 50 0 50 0 0 65 0 65 -349 0 -349 0 -6 -31z"/>
<path d="M3041 1434 c-17 -12 -26 -13 -34 -5 -6 6 -37 11 -69 11 l-58 0 0
-205 0 -205 70 0 70 0 0 135 c0 123 2 135 19 145 11 5 31 10 44 10 28 0 37 20
37 88 0 39 -2 42 -28 42 -15 0 -38 -7 -51 -16z"/>
<path d="M3197 1438 l-49 -11 7 -45 c11 -73 13 -75 59 -66 78 14 101 11 104
-13 3 -17 -3 -24 -25 -28 -124 -26 -153 -49 -153 -125 0 -112 69 -159 164
-110 39 19 39 19 64 0 16 -13 40 -20 67 -20 40 0 43 2 49 31 10 51 7 79 -8 79
-12 0 -15 27 -18 136 -3 135 -3 136 -31 160 -25 21 -37 24 -105 23 -42 -1 -99
-6 -125 -11z m131 -275 c-2 -31 -7 -39 -27 -41 -21 -3 -40 11 -41 31 0 13 40
47 56 47 12 0 14 -9 12 -37z"/>
<path d="M3706 1434 c-20 -11 -31 -13 -39 -5 -6 6 -39 11 -74 11 l-63 0 0
-205 0 -205 70 0 69 0 3 143 3 142 30 0 30 0 3 -142 3 -143 69 0 70 0 0 185
c0 184 0 186 -25 210 -19 20 -34 25 -72 25 -26 -1 -61 -8 -77 -16z"/>
<path d="M3997 1430 c-64 -51 -85 -239 -36 -336 30 -61 78 -84 140 -67 21 5
41 8 44 5 3 -3 5 -32 5 -64 l0 -58 70 0 70 0 0 265 0 265 -59 0 c-37 0 -61 -4
-63 -12 -3 -8 -11 -7 -28 5 -35 24 -110 22 -143 -3z m151 -197 c3 -85 1 -92
-18 -98 -39 -12 -50 11 -50 100 0 45 3 85 7 89 4 4 19 6 33 4 24 -3 25 -5 28
-95z"/>
<path d="M4350 1259 l0 -181 29 -29 c35 -35 76 -38 139 -9 34 16 42 16 42 5 0
-12 15 -15 65 -15 l65 0 0 205 0 206 -66 -3 -67 -3 -3 -133 c-2 -73 -6 -137
-9 -143 -4 -5 -17 -9 -31 -9 l-24 0 0 145 0 145 -70 0 -70 0 0 -181z"/>
<path d="M4760 1235 l0 -205 70 0 70 0 -2 203 -3 202 -67 3 -68 3 0 -206z"/>
</g>
</svg>
