<?xml version="1.0" standalone="no"?>
<!DOCTYPE svg PUBLIC "-//W3C//DTD SVG 20010904//EN"
 "http://www.w3.org/TR/2001/REC-SVG-20010904/DTD/svg10.dtd">
<svg version="1.0" xmlns="http://www.w3.org/2000/svg"
 width="600.000000pt" height="262.000000pt" viewBox="0 0 600.000000 262.000000"
 preserveAspectRatio="xMidYMid meet">

<g transform="translate(0.000000,262.000000) scale(0.100000,-0.100000)"
fill="#000000" stroke="none">
<path d="M1450 2094 c-8 -3 -38 -15 -67 -26 -50 -19 -54 -19 -97 -3 -34 13
-65 16 -123 13 -92 -6 -157 -34 -218 -97 -33 -35 -45 -41 -81 -41 -118 0 -242
-93 -285 -214 -10 -29 -27 -47 -61 -68 -208 -128 -196 -453 21 -571 91 -50
212 -53 304 -8 l40 20 51 -26 c72 -37 188 -37 264 -1 49 24 52 24 68 7 9 -10
50 -36 93 -58 92 -48 141 -96 178 -176 27 -58 27 -65 31 -272 l4 -213 54 0 54
0 0 188 c0 321 22 385 166 488 66 47 125 129 107 148 -11 10 -118 7 -152 -5
-36 -13 -61 0 -61 33 0 31 60 50 149 47 l76 -2 -3 34 c-5 49 -50 126 -93 160
-45 35 -108 59 -159 59 -20 0 -59 7 -86 15 -27 8 -55 15 -62 15 -7 0 -25 -25
-39 -56 -21 -46 -25 -67 -21 -122 3 -65 17 -98 70 -174 10 -14 9 -21 -4 -35
-14 -13 -22 -14 -41 -6 -25 12 -81 108 -91 159 -5 24 -14 33 -34 37 -29 6 -91
-4 -134 -21 -50 -20 -83 13 -48 48 24 24 89 42 157 44 l52 1 11 46 c6 25 22
63 35 85 l23 39 -36 40 c-21 23 -41 49 -47 58 -9 16 -13 16 -51 -3 -50 -25
-133 -40 -186 -32 -33 4 -38 2 -38 -15 0 -38 -61 -142 -107 -182 -55 -49 -125
-76 -218 -85 -67 -7 -117 -25 -181 -66 -31 -20 -31 -20 -49 0 -18 20 -17 21
23 59 47 45 107 67 205 77 37 4 67 10 67 14 0 14 -63 62 -100 78 -53 22 -66
53 -30 72 17 9 32 5 81 -22 34 -17 73 -47 88 -65 14 -18 31 -33 36 -33 24 0
88 81 106 132 l18 53 -22 15 c-54 36 -90 77 -84 94 11 27 37 30 65 7 15 -12
51 -33 81 -48 66 -31 132 -28 209 11 49 25 51 27 54 73 3 46 4 48 33 48 28 0
30 -3 37 -53 9 -59 25 -95 64 -141 30 -36 97 -78 133 -83 21 -3 25 3 35 43 15
57 71 146 97 154 21 7 49 -10 49 -28 0 -6 -16 -33 -35 -61 -19 -28 -37 -65
-41 -82 -6 -31 -5 -32 48 -48 66 -19 126 -61 164 -115 16 -22 36 -41 45 -41
28 0 87 29 123 61 41 36 70 35 74 -2 3 -22 -6 -33 -47 -63 -27 -20 -70 -44
-94 -52 l-44 -15 7 -41 c10 -52 -3 -145 -25 -189 -13 -23 -14 -34 -6 -37 28
-9 108 -82 125 -114 38 -70 -12 -95 -61 -31 -15 20 -47 49 -71 64 l-44 28 -59
-39 c-120 -78 -129 -104 -129 -397 l0 -224 56 3 57 3 14 55 c33 134 109 233
248 324 93 62 134 112 160 197 9 30 23 65 30 79 60 104 70 135 70 215 0 68 -4
89 -29 139 -25 51 -29 69 -27 131 4 131 -63 246 -175 301 -31 15 -61 38 -69
53 -22 43 -97 109 -150 133 -36 16 -73 23 -134 25 -55 1 -89 7 -100 17 -41 35
-108 59 -176 62 -38 2 -77 1 -85 -2z"/>
<path d="M4713 1490 c-25 -10 -37 -41 -27 -72 9 -31 22 -38 70 -38 48 0 64 14
64 56 0 52 -50 77 -107 54z"/>
<path d="M4870 1261 c0 -224 1 -231 23 -256 18 -21 32 -27 72 -28 l50 -2 3 49
c2 27 -2 54 -7 59 -7 7 -11 83 -11 209 l0 198 -65 0 -65 0 0 -229z"/>
<path d="M2627 1463 c-4 -3 -7 -28 -7 -54 l0 -48 48 -3 47 -3 3 -187 2 -188
65 0 65 0 0 190 0 190 44 0 c48 0 56 11 56 78 l0 32 -158 0 c-87 0 -162 -3
-165 -7z"/>
<path d="M5036 1439 c-14 -71 -10 -78 42 -81 l47 -3 3 -187 2 -188 65 0 65 0
0 190 0 191 98 -3 97 -3 3 -187 2 -188 65 0 65 0 0 190 0 190 44 0 c42 0 44 1
50 38 13 79 44 72 -318 72 l-323 0 -7 -31z"/>
<path d="M3120 1353 c-17 -12 -25 -13 -28 -5 -2 8 -26 12 -63 12 l-59 0 0
-190 0 -190 65 0 65 0 0 108 c0 141 3 151 50 158 36 6 38 8 44 51 3 25 6 52 6
59 0 20 -50 18 -80 -3z"/>
<path d="M3267 1358 c-46 -10 -48 -12 -43 -39 19 -96 14 -88 49 -78 18 5 49 9
69 9 30 0 38 -4 38 -18 0 -15 -13 -22 -55 -31 -72 -16 -105 -44 -112 -97 -8
-61 19 -111 67 -125 34 -10 44 -9 81 9 37 18 45 19 59 8 22 -20 55 -28 83 -21
20 5 26 15 30 48 4 28 1 44 -8 51 -10 8 -15 44 -17 128 -3 106 -5 120 -26 140
-18 19 -34 23 -95 25 -39 1 -94 -3 -120 -9z m123 -247 c0 -33 -20 -54 -44 -45
-27 10 -18 55 14 67 27 10 30 7 30 -22z"/>
<path d="M3731 1353 c-26 -13 -36 -14 -39 -5 -2 8 -25 12 -63 12 l-59 0 0
-190 0 -190 65 0 64 0 3 133 3 132 28 3 27 3 0 -135 0 -136 65 0 65 0 0 174 0
175 -26 20 c-32 26 -86 27 -133 4z"/>
<path d="M4001 1354 c-41 -29 -61 -89 -60 -184 0 -47 5 -100 12 -119 21 -61
89 -91 155 -68 21 8 22 6 22 -52 l0 -61 65 0 65 0 0 245 0 245 -54 0 c-33 0
-56 -5 -58 -12 -3 -8 -11 -7 -28 5 -31 22 -89 22 -119 1z m127 -187 l3 -88
-28 3 c-28 3 -28 4 -31 77 -4 89 1 103 30 99 22 -3 23 -8 26 -91z"/>
<path d="M4312 1198 c2 -103 8 -171 16 -185 24 -43 104 -51 160 -17 19 13 22
13 22 -1 0 -12 13 -15 65 -15 l65 0 0 190 0 190 -65 0 -64 0 -3 -132 -3 -133
-27 -3 -28 -3 0 135 0 136 -71 0 -71 0 4 -162z"/>
<path d="M4690 1170 l0 -190 65 0 65 0 0 190 0 190 -65 0 -65 0 0 -190z"/>
</g>
</svg>
